<?xml version="1.0" encoding="utf-8"?>
<!-- Generator: Adobe Illustrator 21.0.2, SVG Export Plug-In . SVG Version: 6.00 Build 0)  -->
<svg version="1.1" id="Layer_1" xmlns="http://www.w3.org/2000/svg" xmlns:xlink="http://www.w3.org/1999/xlink" x="0px" y="0px"
	 width="251.5px" height="233.8px" viewBox="0 0 251.5 233.8" style="enable-background:new 0 0 251.5 233.8;" xml:space="preserve"
	>
<path d="M164,134.7c-10.9,0-19.8,8.9-19.8,19.8c0,10.9,8.9,19.8,19.8,19.8c10.9,0,19.8-8.9,19.8-19.8
	C183.8,143.6,174.9,134.7,164,134.7z M168.2,165.8c-2.3-3.3-6.3-5.1-10.3-4.4c3.5-2.1,5.5-5.9,5.2-10c2.3,3.3,6.3,5.1,10.3,4.4
	C169.9,157.9,167.9,161.8,168.2,165.8z"/>
<path d="M79.4,134.7c-10.9,0-19.8,8.9-19.8,19.8c0,10.9,8.9,19.8,19.8,19.8s19.8-8.9,19.8-19.8C99.2,143.6,90.4,134.7,79.4,134.7z
	 M86.8,165.8c-2.3-3.3-6.3-5.1-10.3-4.4c3.5-2.1,5.5-5.9,5.2-10c2.3,3.3,6.3,5.1,10.3,4.4C88.6,157.9,86.6,161.8,86.8,165.8z"/>
<path d="M202.9,233.8H48.6C21.8,233.8,0,212,0,185.2v-4.3c0-20.2,12.7-38.2,31.1-45.3c-2.2-5-3.4-10.4-3.4-15.9v-3.3
	c0-18.9,13.3-34.6,31.3-38c0-0.1,0-0.1,0-0.2c0-14.2,9.1-27.2,25.1-35.6l0.5-0.2l0.7-0.3C110,29.4,121.4,22,123.5,19.5
	c1.8-2.1,3.7-4.7,5.6-7.3c5-6.9,9-12.3,14.4-12.3c1.7,0,5.8,0.6,8,6.3c2,5.4,1.4,16-2,31.6c21.8,7.2,35.7,22.4,35.9,39.7
	c21.2,0.2,38.4,17.5,38.4,38.8v3.3c0,5.6-1.2,11-3.4,15.9c18.4,7.1,31.1,25.1,31.1,45.3v4.3C251.5,212,229.7,233.8,202.9,233.8z
	 M89.8,52.5l-0.2,0.1C77.5,59,70.5,68.3,70.5,78.1c0,1.3,0.1,2.7,0.4,4.1l1.4,6.7l-6.8,0.2c-14.7,0.5-26.2,12.4-26.2,27.2v3.3
	c0,5.8,1.8,11.3,5.2,16l5.2,7.2l-8.7,1.8c-17,3.6-29.4,18.8-29.4,36.3v4.3c0,20.4,16.6,37.1,37.1,37.1h154.2
	c20.4,0,37.1-16.6,37.1-37.1v-4.3c0-17.4-12.3-32.7-29.4-36.3l-8.7-1.8l5.2-7.2c3.4-4.7,5.2-10.2,5.2-16v-3.3
	c0-15-12.2-27.2-27.2-27.2h-13l1.4-6.9c0.3-1.4,0.4-2.8,0.4-4.1c0-13.3-13.1-25.6-32.7-30.6l-5.5-1.4l1.3-5.5
	c2.7-11.4,3.9-19.9,4-25.1c-0.9,1.2-1.9,2.5-2.6,3.6c-2,2.7-4.1,5.6-6.2,8.1c-4.1,4.7-18.2,13.2-41.9,25.1L89.8,52.5z"/>
<path d="M135.8,178.4c-0.7,5-3.2,8-5.3,8c-2.1,0-4.6-3-5.3-8l-3.2,0.4l-3.2-0.4c-0.7,5-3.2,8-5.3,8c-2.1,0-4.6-3-5.3-8l-6.5,0.9
	c1.1,8.1,5.9,13.7,11.8,13.7c3.4,0,6.4-1.9,8.5-4.9c2.2,3.1,5.2,4.9,8.5,4.9c5.9,0,10.7-5.6,11.8-13.7L135.8,178.4z"/>
</svg>
