<?xml version="1.0" encoding="utf-8"?>
<!-- Generator: Adobe Illustrator 21.0.2, SVG Export Plug-In . SVG Version: 6.00 Build 0)  -->
<svg version="1.1" id="Layer_1" xmlns="http://www.w3.org/2000/svg" xmlns:xlink="http://www.w3.org/1999/xlink" x="0px" y="0px"
	 width="82px" height="67px" viewBox="0 0 82 67" style="enable-background:new 0 0 82 67;" xml:space="preserve">
<g>
	<circle cx="27.9" cy="34.8" r="3.8"/>
	<circle cx="54.1" cy="34.8" r="3.8"/>
	<path d="M57.9,43.1H24.1c-0.6,0-1,0.4-1,1c0,1.3,0.2,2.6,0.4,3.9c0,0.1,0,0.1,0,0.2c1.2,5.1,4.5,9.4,9,11.8c0,0,0,0,0,0
		c0,0,0.1,0,0.1,0.1c2.5,1.3,5.3,2,8.2,2c2.9,0,5.6-0.7,8.1-1.9c0.1,0,0.2-0.1,0.3-0.1c0,0,0,0,0,0c4.5-2.4,7.9-6.7,9-11.8
		c0-0.1,0-0.1,0-0.2c0.3-1.2,0.4-2.5,0.4-3.9C58.9,43.6,58.4,43.1,57.9,43.1z M56.8,45.1c0,0.7-0.1,1.3-0.3,1.9
		c-1.9,0.4-8,1.7-15.6,1.7c-7.6,0-13.7-1.3-15.6-1.7c-0.1-0.6-0.2-1.3-0.3-1.9H56.8z M34.8,58.7c1-1.2,2-1.9,3-2
		c1.4-0.2,2.5,0.8,2.5,0.8c0.4,0.4,1,0.4,1.4,0c0,0,1.1-1,2.5-0.8c1,0.1,2.1,0.8,3,2c-1.9,0.8-4,1.3-6.3,1.3S36.7,59.5,34.8,58.7z
		 M49.1,57.8c-1.4-1.8-3-2.9-4.6-3.1c-1.5-0.2-2.7,0.4-3.4,0.8c-0.7-0.4-1.9-1-3.4-0.8c-1.7,0.2-3.2,1.2-4.6,3.1
		c-3.2-1.9-5.7-4.9-7-8.5c2.7,0.6,8.2,1.5,15,1.5s12.4-1,15-1.5C54.8,52.8,52.3,55.9,49.1,57.8z"/>
	<path d="M71.1,40.3c2-1.6,3.4-4,3.4-6.8c0-4.7-3.8-8.5-8.5-8.5h-5.6c1.9-3.1,2.9-6.6,2.9-10.2C63.2,10.3,59.1,0,51,0
		c-0.6,0-1,0.4-1,1c0,0.4-0.1,9-11.5,9H26c-4.7,0-8.5,3.8-8.5,8.5c0,2.6,1.2,4.9,3,6.5H16c-4.7,0-8.5,3.8-8.5,8.5
		c0,2.8,1.3,5.2,3.4,6.8C4.7,41.5,0,47,0,53.5C0,60.9,6.1,67,13.5,67h55C75.9,67,82,60.9,82,53.5C82,47,77.3,41.5,71.1,40.3z
		 M68.5,65h-55C7.2,65,2,59.8,2,53.5S7.2,42,13.5,42H16c0.6,0,1-0.4,1-1s-0.4-1-1-1c-3.6,0-6.5-2.9-6.5-6.5S12.4,27,16,27h10
		c0.6,0,1-0.4,1-1s-0.4-1-1-1c-3.6,0-6.5-2.9-6.5-6.5S22.4,12,26,12h12.5c10.8,0,13-7.2,13.4-9.9c6.4,0.8,9.4,9.9,9.4,12.7
		c0,3.9-1.2,7.6-3.5,10.6c-0.2,0.3-0.3,0.7-0.1,1c0.2,0.3,0.5,0.6,0.9,0.6H66c3.6,0,6.5,2.9,6.5,6.5S69.6,40,66,40c-0.6,0-1,0.4-1,1
		s0.4,1,1,1h2.5C74.8,42,80,47.2,80,53.5S74.8,65,68.5,65z"/>
</g>
</svg>
