<?xml version="1.0" encoding="utf-8"?>
<!-- Generator: Adobe Illustrator 21.0.2, SVG Export Plug-In . SVG Version: 6.00 Build 0)  -->
<svg version="1.1" id="Layer_1" xmlns="http://www.w3.org/2000/svg" xmlns:xlink="http://www.w3.org/1999/xlink" x="0px" y="0px"
	 width="74.3px" height="65.7px" viewBox="0 0 74.3 65.7" style="enable-background:new 0 0 74.3 65.7;" xml:space="preserve">
<path d="M41.3,64.4c-13.5,0-27.1,0-40.6,0c0.2,0.3,0.4,0.6,0.7,0.9c1.2-4.5,2.6-9,4-13.5c2-6.2,3.9-13.4,8.3-18.4
	c2.9-3.3,6.2-6.1,9.4-9c2.6-2.4,5.2-4.9,6.9-8.1c1.5-2.8,3-7.3,6.5-8.1c1.9-0.5,1.8,5.6,1.8,6.9c0,0.6,1,1,1.3,0.3c0.5-1,1-2,1.6-3
	c0.8-1.4,2-3.7,3.6-4.2c2.4-0.8,0,7.3-0.4,8.2c-0.1,0.3,0.1,0.6,0.3,0.8c8,4.9,15.8,10.9,22.1,18c3.4,3.8,7.4,9.3,5.8,14.7
	c-0.9,3.1-3.9,5.5-7,5.8c-3.5,0.4-7-1.5-10-3.1c-3.2-1.8-10.6-7.6-13.9-3.1c-1.7,2.3-1.5,6.1-1.5,8.7c0,2.3,0.2,4.6,0.5,6.9
	c0.1,0.9,1.5,0.9,1.4,0c-0.3-2.2-0.4-4.3-0.5-6.5c-0.1-2.4-0.5-7.5,2-9.1c2.2-1.4,5.9,1.1,7.7,2.2c3,1.7,5.9,3.5,9.2,4.6
	c5.6,1.9,11.8-0.4,13.6-6.4c1.5-4.9-1.6-10.1-4.5-13.8c-6.4-8.1-15.2-14.8-24-20.2c0.1,0.3,0.2,0.5,0.3,0.8c0.9-2.1,3.3-8.5,0.1-9.8
	c-3.4-1.3-6.3,5.5-7.4,7.7c0.4,0.1,0.8,0.2,1.3,0.3c0-2.3-0.1-4.9-1-7.1c-1.2-2.8-4.9-0.1-6.1,1.2c-2.4,2.7-3.2,6.3-5.4,9.1
	c-2.8,3.5-6.5,6.4-9.8,9.5c-2.8,2.6-5.6,5.2-7.4,8.5c-1.6,2.9-2.8,6.1-3.9,9.3C3.9,51.6,2,57.8,0.2,64c-0.1,0.3-0.2,0.5-0.2,0.8
	c-0.1,0.4,0.2,0.9,0.7,0.9c13.5,0,27.1,0,40.6,0C42.2,65.7,42.2,64.4,41.3,64.4z"/>
<g>
	<circle cx="49.5" cy="32.1" r="2.8"/>
</g>
<path d="M67.1,34.4c-5,5.6-9.9,11.2-14.9,16.8c-0.6,0.7,0.4,1.6,1,1c5-5.6,10-11.2,14.9-16.8C68.6,34.7,67.7,33.7,67.1,34.4
	L67.1,34.4z"/>
<path d="M66.4,43.9c1.2,0.7,2.4,1.3,3.6,2c0.8,0.4,1.5-0.7,0.7-1.2c-1.2-0.7-2.4-1.3-3.6-2C66.3,42.3,65.6,43.5,66.4,43.9L66.4,43.9
	z"/>
<path d="M48.2,18.7c2.9-2.9,5.8-5.7,8.9-8.4c2.4-2.1,4.8-4.2,7.3-6c1.4-1,3.5-2.8,5.3-2.7c0.8,0-1.5,3.6-1.7,3.9
	c-1.7,2.5-3.7,4.9-5.8,7.2c-2.9,3.3-5.8,6.4-8.9,9.5c-0.6,0.6,0.3,1.6,1,1c3.2-3.2,6.2-6.5,9.2-9.8c2-2.3,4-4.6,5.7-7.1
	c0.9-1.3,2.2-3.1,2-4.8c-0.6-3.8-8.5,2.5-9.3,3.2c-4.7,3.6-9,7.8-13.2,11.9c-0.5,0.5-0.9,0.9-1.4,1.4C46.6,18.3,47.5,19.3,48.2,18.7
	L48.2,18.7z"/>
<path d="M28.5,16.3c0.3,4.9,0.3,9.8-0.2,14.7c-0.3,2.5-0.6,6.1-2.6,7.9c-1.8,1.6-3-4.6-3.3-5.8c-0.2-0.9-1.5-0.5-1.3,0.4
	c0.5,2.8,0.7,5.8,0.5,8.6c-0.1,0.8-0.2,1.7-0.5,2.4c-0.4,1.3-1.2,0.7-1.9,0c-1-1.1-1.7-2.5-2.3-3.9c-0.3-0.6-1.4-0.3-1.3,0.3
	c0.3,2.7,0.4,5.5,0.3,8.3c-0.1,1.6-0.2,3.7-1.2,4.9c-0.9,1.1-2.9-2.1-3.3-2.8c-0.4-0.6-1.3-0.4-1.3,0.3c0,4.5,0,8.9,0,13.4
	c0,0.9,1.4,0.9,1.4,0c0-4.5,0-8.9,0-13.4c-0.4,0.1-0.8,0.2-1.3,0.3c0.9,1.3,2.2,3.4,3.9,3.7c1.6,0.3,2.4-1.9,2.7-3.1
	c1-3.7,0.6-8,0.2-11.8c-0.4,0.1-0.8,0.2-1.3,0.3c0.9,1.9,4.7,8.5,6.6,3.8c1.5-3.6,0.7-8.4,0.1-12.1c-0.4,0.1-0.9,0.2-1.3,0.4
	c0.3,1.7,1.2,7.2,3.6,7.2c2.8,0,3.9-3.7,4.4-5.8c1.4-5.9,1.2-12.4,0.8-18.5C29.8,15.4,28.5,15.4,28.5,16.3L28.5,16.3z"/>
<path d="M63.3,3.6c0,2.6,0,5.3,0,7.9c0,0.9,1.4,0.9,1.4,0c0-2.6,0-5.3,0-7.9C64.6,2.7,63.3,2.7,63.3,3.6L63.3,3.6z"/>
<path d="M58.5,7.4c0,3,0,6,0,8.9c0,0.9,1.4,0.9,1.4,0c0-3,0-6,0-8.9C59.8,6.5,58.5,6.5,58.5,7.4L58.5,7.4z"/>
<path d="M53.5,11.9c0,3.1,0,6.3,0,9.4c0,0.9,1.4,0.9,1.4,0c0-3.1,0-6.3,0-9.4C54.9,11,53.5,11,53.5,11.9L53.5,11.9z"/>
</svg>
