<svg id="Layer_1" xmlns="http://www.w3.org/2000/svg" viewBox="0 0 98 110"><style>.st0{opacity:.65;fill:#c5d8e5}.st1{fill:#90d196}.st2{opacity:.58}.st3{fill:#62a394}</style><path class="st0" d="M96.4 63.6l-45.1 45.1c-1.2 1.2-3.1 1.2-4.2 0L2 63.6C.8 62.4.8 60.5 2 59.4l45-45.1c1.2-1.2 3.1-1.2 4.2 0L96 59.4c1.2 1.2 1.5 3 .4 4.2z"/><path class="st1" d="M1.6 59.8c-1 1.3-.5 2.3 1.1 2.3l92.6.1c1.6 0 2.2-1 1.1-2.3L50.8 3.1c-1-1.3-2.7-1.3-3.8 0L1.6 59.8z"/><g class="st2"><path class="st3" d="M3 61c-1.5.6-1.4 1.1.2 1.1l92.1.1c1.7 0 2.2-1 1.1-2.3L76.6 35.3c-1-1.3-3.1-1.8-4.7-1.2L3 61z"/></g><g class="st2"><path class="st3" d="M1.6 59.8c-1 1.3-.5 2.3 1.1 2.3l92.6.1c1.7 0 1.8-.6.4-1.4L32.4 26c-1.4-.8-3.5-.4-4.5.9L1.6 59.8z"/></g></svg>