<?xml version="1.0" encoding="utf-8"?>
<!-- Generator: Adobe Illustrator 21.0.0, SVG Export Plug-In . SVG Version: 6.00 Build 0)  -->
<svg version="1.1" id="Layer_1" xmlns="http://www.w3.org/2000/svg" xmlns:xlink="http://www.w3.org/1999/xlink" x="0px" y="0px"
	 viewBox="0 0 98 110" style="enable-background:new 0 0 98 110;" xml:space="preserve">
<style type="text/css">
	.st0{opacity:0.65;fill:#C5D8E5;}
	.st1{fill:#90D196;}
	.st2{opacity:0.58;}
	.st3{fill:#62A394;}
</style>
<path class="st0" d="M96.4,63.6l-45.1,45.1c-1.2,1.2-3.1,1.2-4.2,0L2,63.6c-1.2-1.2-1.2-3.1,0-4.2L47,14.3c1.2-1.2,3.1-1.2,4.2,0
	L96,59.4C97.2,60.6,97.5,62.4,96.4,63.6z"/>
<g>
	<path class="st1" d="M1.6,59.8c-1,1.3-0.5,2.3,1.1,2.3l92.6,0.1c1.6,0,2.2-1,1.1-2.3L50.8,3.1c-1-1.3-2.7-1.3-3.8,0L1.6,59.8z"/>
</g>
<g class="st2">
	<path class="st3" d="M3,61c-1.5,0.6-1.4,1.1,0.2,1.1l92.1,0.1c1.7,0,2.2-1,1.1-2.3L76.6,35.3c-1-1.3-3.1-1.8-4.7-1.2L3,61z"/>
</g>
<g class="st2">
	<path class="st3" d="M1.6,59.8c-1,1.3-0.5,2.3,1.1,2.3l92.6,0.1c1.7,0,1.8-0.6,0.4-1.4L32.4,26c-1.4-0.8-3.5-0.4-4.5,0.9L1.6,59.8z
		"/>
</g>
</svg>
