<?xml version="1.0" encoding="utf-8"?>
<!-- Generator: Adobe Illustrator 21.0.2, SVG Export Plug-In . SVG Version: 6.00 Build 0)  -->
<svg version="1.1" id="Layer_1" xmlns="http://www.w3.org/2000/svg" xmlns:xlink="http://www.w3.org/1999/xlink" x="0px" y="0px"
	 width="88.1px" height="80.2px" viewBox="0 0 88.1 80.2" style="enable-background:new 0 0 88.1 80.2;" xml:space="preserve">
<g>
	<path d="M26.7,56.5c-0.3-0.1-0.6-0.2-0.9-0.3c-0.7-0.3-1.5-0.6-2.4-0.6c-0.8,0-1.5,0.3-2.1,0.5c-0.5,0.2-1,0.4-1.5,0.4
		c-0.3,0-0.8-0.2-1.2-0.4c-0.5-0.2-1.2-0.5-1.9-0.5c-1,0-1.8,0.3-2.6,0.6c-0.4,0.1-0.7,0.2-1.1,0.3c-0.5,0.1-0.8,0.6-0.6,1.1
		s0.6,0.8,1.1,0.6c0.4-0.1,0.8-0.2,1.2-0.4c0.7-0.2,1.4-0.5,2.1-0.5c0.3,0,0.8,0.2,1.2,0.4c0.5,0.2,1.2,0.5,1.9,0.5
		c0.8,0,1.5-0.3,2.1-0.5c0.5-0.2,1-0.4,1.5-0.4c0.5,0,1.1,0.2,1.7,0.5c0.4,0.1,0.7,0.3,1.1,0.4c0.1,0,0.2,0,0.2,0
		c0.4,0,0.7-0.3,0.8-0.6C27.5,57.2,27.2,56.7,26.7,56.5z"/>
	<path d="M56,66.9c-0.3-0.1-0.6-0.2-0.9-0.3c-0.7-0.3-1.5-0.6-2.4-0.6c-0.8,0-1.5,0.3-2.1,0.5c-0.5,0.2-1,0.4-1.5,0.4
		c-0.3,0-0.8-0.2-1.2-0.4c-0.5-0.2-1.2-0.5-1.9-0.5c-1,0-1.8,0.3-2.6,0.6c-0.4,0.1-0.7,0.2-1.1,0.3c-0.5,0.1-0.8,0.6-0.6,1.1
		c0.1,0.5,0.6,0.8,1.1,0.6c0.4-0.1,0.8-0.2,1.2-0.4c0.7-0.2,1.4-0.5,2.1-0.5c0.3,0,0.8,0.2,1.2,0.4c0.5,0.2,1.2,0.5,1.9,0.5
		c0.8,0,1.5-0.3,2.1-0.5c0.5-0.2,1-0.4,1.5-0.4c0.5,0,1.1,0.2,1.7,0.5c0.4,0.1,0.7,0.3,1.1,0.4c0.1,0,0.2,0,0.2,0
		c0.4,0,0.7-0.3,0.8-0.6C56.7,67.5,56.5,67.1,56,66.9z"/>
	<path d="M77.9,75.7c-0.3-0.1-0.6-0.2-0.9-0.3c-0.7-0.3-1.5-0.6-2.4-0.6c-0.8,0-1.5,0.3-2.1,0.5c-0.5,0.2-1,0.4-1.5,0.4
		c-0.3,0-0.8-0.2-1.2-0.4c-0.5-0.2-1.2-0.5-1.9-0.5c-1,0-1.8,0.3-2.6,0.6c-0.4,0.1-0.7,0.2-1.1,0.3c-0.5,0.1-0.8,0.6-0.6,1.1
		c0.1,0.5,0.6,0.8,1.1,0.6c0.4-0.1,0.8-0.2,1.2-0.4c0.7-0.2,1.4-0.5,2.1-0.5c0.3,0,0.8,0.2,1.2,0.4c0.5,0.2,1.2,0.5,1.9,0.5
		c0.8,0,1.5-0.3,2.1-0.5c0.5-0.2,1-0.4,1.5-0.4c0.5,0,1.1,0.2,1.7,0.5c0.4,0.1,0.7,0.3,1.1,0.4c0.1,0,0.2,0,0.2,0
		c0.4,0,0.7-0.3,0.8-0.6C78.7,76.3,78.4,75.8,77.9,75.7z"/>
	<path d="M28,47.3c0.4-0.1,0.8-0.2,1.2-0.4c0.7-0.2,1.4-0.5,2.1-0.5c0.3,0,0.8,0.2,1.2,0.4c0.5,0.2,1.2,0.5,1.9,0.5
		c0.8,0,1.5-0.3,2.1-0.5c0.5-0.2,1-0.4,1.5-0.4c0.5,0,1.1,0.2,1.7,0.5c0.4,0.1,0.7,0.3,1.1,0.4c0.1,0,0.2,0,0.2,0
		c0.4,0,0.7-0.3,0.8-0.6c0.1-0.5-0.1-1-0.6-1.1c-0.3-0.1-0.6-0.2-0.9-0.3c-0.7-0.3-1.5-0.6-2.4-0.6c-0.8,0-1.5,0.3-2.1,0.5
		c-0.5,0.2-1,0.4-1.5,0.4c-0.3,0-0.8-0.2-1.2-0.4c-0.5-0.2-1.2-0.5-1.9-0.5c-1,0-1.8,0.3-2.6,0.6c-0.4,0.1-0.7,0.2-1.1,0.3
		c-0.5,0.1-0.8,0.6-0.6,1.1C27,47.1,27.5,47.4,28,47.3z"/>
	<path d="M42.1,63.4c0.4,0,0.7-0.3,0.8-0.6c0.1-0.5-0.1-1-0.6-1.1c-0.3-0.1-0.6-0.2-0.9-0.3c-0.7-0.3-1.5-0.6-2.4-0.6
		c-0.8,0-1.5,0.3-2.1,0.5c-0.5,0.2-1,0.4-1.5,0.4c-0.3,0-0.8-0.2-1.2-0.4c-0.5-0.2-1.2-0.5-1.9-0.5c-1,0-1.8,0.3-2.6,0.6
		c-0.4,0.1-0.7,0.2-1.1,0.3c-0.5,0.1-0.8,0.6-0.6,1.1c0.1,0.5,0.6,0.8,1.1,0.6c0.4-0.1,0.8-0.2,1.2-0.4c0.7-0.2,1.4-0.5,2.1-0.5
		c0.3,0,0.8,0.2,1.2,0.4c0.5,0.2,1.2,0.5,1.9,0.5c0.8,0,1.5-0.3,2.1-0.5c0.5-0.2,1-0.4,1.5-0.4c0.5,0,1.1,0.2,1.7,0.5
		c0.4,0.1,0.7,0.3,1.1,0.4C41.9,63.4,42,63.4,42.1,63.4z"/>
	<path d="M87.8,23.7L68.5,6.1c-0.3-0.3-0.9-0.3-1.2,0L51.9,20.2L46,16.8c0,0-0.1,0-0.1,0c-0.2-0.2-0.5-0.2-0.8-0.1l-4.3,1.5
		l-10-17.7C30.7,0.2,30.4,0,30.1,0c-0.3,0-0.6,0.1-0.8,0.4L12,23.5l-3.7-1c-0.3-0.1-0.6,0-0.8,0.2l-7.2,6.7c-0.4,0.3-0.4,0.9,0,1.2
		c0.3,0.4,0.9,0.4,1.2,0l5.9-5.5l2.6,2.4l-2.9,2.2c-0.2,0.2-0.4,0.5-0.3,0.8s0.2,0.6,0.5,0.7l10.2,4.8c0.1,0.1,0.2,0.1,0.4,0.1
		c0.3,0,0.6-0.2,0.8-0.5c0.2-0.4,0-1-0.4-1.2l-8.9-4.2l2.6-2c0.2-0.2,0.3-0.4,0.3-0.7c0-0.3-0.1-0.5-0.3-0.7l-2.6-2.3l2.7,0.7
		c0.3,0.1,0.7,0,0.9-0.3L29.2,3.5l0.9,4l-4.8,5.5c-0.3,0.4-0.3,0.9,0.1,1.2l8.9,8c0.2,0.1,0.4,0.2,0.6,0.2c0.2,0,0.5-0.1,0.7-0.3
		c0.3-0.4,0.3-0.9-0.1-1.2l-8.3-7.4l4.5-5.1c0.2-0.2,0.3-0.5,0.2-0.8L31.3,5l8.3,14.7c0.2,0.4,0.7,0.5,1.1,0.4l4.4-1.5l4.1,5.7
		l-1.6,6.2c-0.1,0.4,0.1,0.9,0.5,1c0.6,0.4,1.8,0.7,4.3,1.3c1.4,0.3,3.4,0.9,4.7,1.3c-4.7,1.5-11.4,2.5-18.4,3.7
		C21.6,40.5,3.9,43.4,5,52.6c1.3,11.3,16.3,20.3,30.8,27.5c0.1,0.1,0.3,0.1,0.4,0.1c0.3,0,0.6-0.2,0.8-0.5c0.2-0.4,0-1-0.4-1.2
		C23.3,71.9,7.9,62.9,6.7,52.4C5.8,44.8,23.4,42,38.9,39.5c7.8-1.3,15.1-2.5,20-4.2c0.9-0.3,1-0.9,1-1.2c-0.1-1.1-1.5-1.6-6.9-3
		c13-0.7,28.3-0.1,29.8,1.6c-0.7,1.3-8.9,3.4-14.9,5c-12.4,3.2-25.2,6.5-24.7,11.8c0.9,9.4,24.5,13.5,42.1,15.8
		c0.5,0.1,0.9-0.3,1-0.8c0.1-0.5-0.3-0.9-0.8-1c-26.4-3.4-40-8.2-40.6-14.2c-0.4-3.8,13.9-7.5,23.4-9.9c11-2.8,16.2-4.3,16.2-6.7
		c0-0.3-0.1-0.8-0.6-1.2c-3.3-3.1-26-2.5-34.5-1.9l1.4-5.2c0.1-0.3,0-0.5-0.1-0.7l-2.4-3.4l3.2,1.8c0.3,0.2,0.7,0.1,1-0.1l14-12.8
		l-0.9,4.5c-0.1,0.4,0.1,0.8,0.4,0.9l4.5,2.4l-10.7,7.5c-0.4,0.3-0.5,0.8-0.2,1.2c0.2,0.2,0.4,0.4,0.7,0.4c0.2,0,0.4-0.1,0.5-0.2
		l11.9-8.4c0.2-0.2,0.4-0.5,0.4-0.8c0-0.3-0.2-0.6-0.5-0.7l-5.1-2.8l1-4.8L86.7,25c0.2,0.2,0.4,0.2,0.6,0.2c0.2,0,0.5-0.1,0.7-0.3
		C88.2,24.5,88.2,24,87.8,23.7z"/>
</g>
</svg>
